<svg version="1" xmlns="http://www.w3.org/2000/svg" width="933.333" height="933.333" viewBox="0 0 700.000000 700.000000"><path d="M41.2 168.4c-.4.6-.7 82.3-.7 181.6l.1 180.5 24.7.3 24.7.2V374.9l66.3.4c36.4.2 68 .7 70.2 1 15.2 2.6 24.4 6.6 31.8 14.2 10.2 10.2 14.1 22.2 15.2 45.5 2.3 51.1 3.8 75.3 5 82.2.2 1.3 1.2 4.7 2.2 7.5l1.7 5.3H343v-4.5c0-2.5-.4-4.5-.9-4.5-1.7 0-7.2-5.3-9.7-9.2-5.9-9.2-7.8-20.5-8.9-51.8-1.3-37.6-2.3-54.4-3.5-59-.5-1.9-1.1-4.9-1.4-6.6-2.9-16.9-15.8-31.6-35.8-40.9l-5-2.3 6.3-3.7c20.9-12.2 36.6-32.4 41.5-53.3.9-3.7 1.8-7.6 2.1-8.7.9-3.8 1.2-35.2.3-38.6-.5-1.9-1.1-5.2-1.4-7.4-1-7.1-8-25.9-10.6-28.5-.3-.3-1.7-2.3-3.2-4.5-13.5-19.7-41.3-34.2-73.2-38.1-2.8-.3-6.4-.8-8.1-1.1-1.6-.2-45-.6-96.3-.7-65.8-.2-93.5.1-94 .8zm182.1 42c27.7 2.2 44.7 14 52.4 36.3 2.4 7.1 2.7 9.1 2.7 22.8 0 8.2-.3 16.7-.8 18.8-1.2 6-4.4 14.7-7 19.2-7.6 12.8-26.7 22.6-49.6 25.4-4.1.5-35.3 1-69.2 1l-61.8.2v-62c0-40.4.3-62 1-62.3 1.9-.6 123.9-.1 132.3.6zM406.5 167.9c-.3.2-.5 82-.5 181.8V531l24.7-.2 24.7-.3V454l.1-76.5 58-.1c66.8-.2 75.8-.6 90-3.8 31.2-7.2 52.7-26.3 67-59.9 2-4.6 5.1-17.1 6.4-25.2.9-6.3.7-32.8-.3-38-2.9-14-5.1-21.5-8.9-29.3-9.1-18.7-25-33.9-45.1-43.2-10.8-5-19.6-7.4-35.1-9.6-5.5-.8-180.3-1.3-181-.5zm161.1 42.5c4.6.4 9.3.9 10.6 1.2 1.3.2 3.6.7 5.2 1 6.3 1.1 15.4 4.7 20.6 8.1 15.7 10.3 23.5 26.5 23.9 49.8.5 32.3-11.4 50.7-38.9 59.9-13.8 4.6-18.2 4.9-77.5 5.1l-56.1.2v-62.8c0-54.8.2-62.9 1.5-63.1 3-.6 102.7 0 110.7.6z"/></svg>